<?xml version="1.0" encoding="UTF-8" standalone="no"?>
<!DOCTYPE svg PUBLIC "-//W3C//DTD SVG 1.1//EN"
 "http://www.w3.org/Graphics/SVG/1.1/DTD/svg11.dtd">
<!-- Generated by graphviz version 2.43.0 (0)
 -->
<!-- Title: G Pages: 1 -->
<svg width="572pt" height="215pt"
 viewBox="0.00 0.00 572.00 215.00" xmlns="http://www.w3.org/2000/svg" xmlns:xlink="http://www.w3.org/1999/xlink">
<g id="graph0" class="graph" transform="scale(1 1) rotate(0) translate(4 211)">
<title>G</title>
<polygon fill="white" stroke="transparent" points="-4,4 -4,-211 568,-211 568,4 -4,4"/>
<!-- z -->
<g id="node1" class="node">
<title>z</title>
<ellipse fill="red" stroke="red" cx="18" cy="-18" rx="18" ry="18"/>
<text text-anchor="middle" x="18" y="-14.3" font-family="Times,serif" font-size="14.00">z</text>
</g>
<!-- s -->
<g id="node11" class="node">
<title>s</title>
<ellipse fill="green" stroke="green" cx="109" cy="-18" rx="18" ry="18"/>
<text text-anchor="middle" x="109" y="-14.3" font-family="Times,serif" font-size="14.00">s</text>
</g>
<!-- z&#45;&gt;s -->
<g id="edge1" class="edge">
<title>z&#45;&gt;s</title>
<path fill="none" stroke="black" d="M36.16,-18C48.72,-18 66.02,-18 80.5,-18"/>
<polygon fill="black" stroke="black" points="80.89,-21.5 90.89,-18 80.89,-14.5 80.89,-21.5"/>
<text text-anchor="middle" x="63.5" y="-21.8" font-family="Times,serif" font-size="14.00">12</text>
</g>
<!-- a -->
<g id="node2" class="node">
<title>a</title>
<ellipse fill="green" stroke="green" cx="18" cy="-105" rx="18" ry="18"/>
<text text-anchor="middle" x="18" y="-101.3" font-family="Times,serif" font-size="14.00">a</text>
</g>
<!-- b -->
<g id="node3" class="node">
<title>b</title>
<ellipse fill="lightgrey" stroke="black" cx="109" cy="-133" rx="18" ry="18"/>
<text text-anchor="middle" x="109" y="-129.3" font-family="Times,serif" font-size="14.00">b</text>
</g>
<!-- a&#45;&gt;b -->
<g id="edge2" class="edge">
<title>a&#45;&gt;b</title>
<path fill="none" stroke="black" d="M34.4,-112.89C40.4,-115.73 47.41,-118.79 54,-121 62.67,-123.91 72.37,-126.32 81.13,-128.19"/>
<polygon fill="black" stroke="black" points="80.72,-131.68 91.21,-130.21 82.09,-124.81 80.72,-131.68"/>
<text text-anchor="middle" x="63.5" y="-128.8" font-family="Times,serif" font-size="14.00">1</text>
</g>
<!-- a&#45;&gt;b -->
<g id="edge3" class="edge">
<title>a&#45;&gt;b</title>
<path fill="none" stroke="black" d="M35.6,-100.66C46.57,-98.6 61.06,-97.47 73,-102 78.93,-104.25 84.5,-108.01 89.38,-112.16"/>
<polygon fill="black" stroke="black" points="87.22,-114.94 96.88,-119.3 92.05,-109.87 87.22,-114.94"/>
<text text-anchor="middle" x="63.5" y="-105.8" font-family="Times,serif" font-size="14.00">4</text>
</g>
<!-- h -->
<g id="node9" class="node">
<title>h</title>
<ellipse fill="lightgrey" stroke="black" cx="200" cy="-73" rx="18" ry="18"/>
<text text-anchor="middle" x="200" y="-69.3" font-family="Times,serif" font-size="14.00">h</text>
</g>
<!-- a&#45;&gt;h -->
<g id="edge4" class="edge">
<title>a&#45;&gt;h</title>
<path fill="none" stroke="black" d="M35.23,-99.3C41.09,-97.4 47.79,-95.42 54,-94 94.46,-84.77 142.25,-78.78 171.58,-75.64"/>
<polygon fill="black" stroke="black" points="172.28,-79.09 181.87,-74.58 171.56,-72.13 172.28,-79.09"/>
<text text-anchor="middle" x="109" y="-89.8" font-family="Times,serif" font-size="14.00">8</text>
</g>
<!-- c -->
<g id="node4" class="node">
<title>c</title>
<ellipse fill="lightgrey" stroke="black" cx="200" cy="-143" rx="18" ry="18"/>
<text text-anchor="middle" x="200" y="-139.3" font-family="Times,serif" font-size="14.00">c</text>
</g>
<!-- b&#45;&gt;c -->
<g id="edge6" class="edge">
<title>b&#45;&gt;c</title>
<path fill="none" stroke="black" d="M127.16,-134.93C139.84,-136.35 157.36,-138.32 171.92,-139.96"/>
<polygon fill="black" stroke="black" points="171.56,-143.44 181.89,-141.08 172.35,-136.48 171.56,-143.44"/>
<text text-anchor="middle" x="154.5" y="-141.8" font-family="Times,serif" font-size="14.00">8</text>
</g>
<!-- b&#45;&gt;h -->
<g id="edge5" class="edge">
<title>b&#45;&gt;h</title>
<path fill="none" stroke="black" d="M124.3,-123.36C138.31,-113.91 159.89,-99.37 176.26,-88.33"/>
<polygon fill="black" stroke="black" points="178.4,-91.11 184.74,-82.62 174.49,-85.3 178.4,-91.11"/>
<text text-anchor="middle" x="154.5" y="-111.8" font-family="Times,serif" font-size="14.00">11</text>
</g>
<!-- d -->
<g id="node5" class="node">
<title>d</title>
<ellipse fill="lightgrey" stroke="black" cx="364" cy="-189" rx="18" ry="18"/>
<text text-anchor="middle" x="364" y="-185.3" font-family="Times,serif" font-size="14.00">d</text>
</g>
<!-- c&#45;&gt;d -->
<g id="edge9" class="edge">
<title>c&#45;&gt;d</title>
<path fill="none" stroke="black" d="M216.87,-149.87C222.8,-152.3 229.65,-154.94 236,-157 270.03,-168.04 310.2,-177.59 336.11,-183.32"/>
<polygon fill="black" stroke="black" points="335.43,-186.76 345.95,-185.46 336.92,-179.92 335.43,-186.76"/>
<text text-anchor="middle" x="282" y="-177.8" font-family="Times,serif" font-size="14.00">7</text>
</g>
<!-- f -->
<g id="node7" class="node">
<title>f</title>
<ellipse fill="red" stroke="red" cx="455" cy="-148" rx="18" ry="18"/>
<text text-anchor="middle" x="455" y="-144.3" font-family="Times,serif" font-size="14.00">f</text>
</g>
<!-- c&#45;&gt;f -->
<g id="edge8" class="edge">
<title>c&#45;&gt;f</title>
<path fill="none" stroke="black" d="M218.39,-143.34C261.64,-144.2 374.35,-146.43 426.63,-147.46"/>
<polygon fill="black" stroke="black" points="426.76,-150.96 436.82,-147.66 426.89,-143.96 426.76,-150.96"/>
<text text-anchor="middle" x="323" y="-148.8" font-family="Times,serif" font-size="14.00">4</text>
</g>
<!-- i -->
<g id="node10" class="node">
<title>i</title>
<ellipse fill="red" stroke="red" cx="282" cy="-95" rx="18" ry="18"/>
<text text-anchor="middle" x="282" y="-91.3" font-family="Times,serif" font-size="14.00">i</text>
</g>
<!-- c&#45;&gt;i -->
<g id="edge7" class="edge">
<title>c&#45;&gt;i</title>
<path fill="none" stroke="black" d="M213.61,-131.02C219.98,-125.37 228.04,-118.83 236,-114 241.9,-110.42 248.59,-107.19 254.98,-104.46"/>
<polygon fill="black" stroke="black" points="256.64,-107.57 264.61,-100.59 254.03,-101.07 256.64,-107.57"/>
<text text-anchor="middle" x="241" y="-117.8" font-family="Times,serif" font-size="14.00">2</text>
</g>
<!-- e -->
<g id="node6" class="node">
<title>e</title>
<ellipse fill="red" stroke="red" cx="546" cy="-179" rx="18" ry="18"/>
<text text-anchor="middle" x="546" y="-175.3" font-family="Times,serif" font-size="14.00">e</text>
</g>
<!-- d&#45;&gt;e -->
<g id="edge11" class="edge">
<title>d&#45;&gt;e</title>
<path fill="none" stroke="black" d="M382.08,-190.17C387.78,-190.51 394.16,-190.83 400,-191 448.94,-192.4 461.38,-190.75 510,-185 512.57,-184.7 515.24,-184.33 517.91,-183.93"/>
<polygon fill="black" stroke="black" points="518.66,-187.35 527.96,-182.29 517.53,-180.45 518.66,-187.35"/>
<text text-anchor="middle" x="455" y="-194.8" font-family="Times,serif" font-size="14.00">9</text>
</g>
<!-- d&#45;&gt;f -->
<g id="edge10" class="edge">
<title>d&#45;&gt;f</title>
<path fill="none" stroke="black" d="M380.91,-181.67C394.2,-175.55 413.39,-166.71 428.77,-159.62"/>
<polygon fill="black" stroke="black" points="430.61,-162.63 438.23,-155.27 427.68,-156.27 430.61,-162.63"/>
<text text-anchor="middle" x="409.5" y="-175.8" font-family="Times,serif" font-size="14.00">14</text>
</g>
<!-- f&#45;&gt;e -->
<g id="edge12" class="edge">
<title>f&#45;&gt;e</title>
<path fill="none" stroke="black" d="M472.32,-153.69C485.37,-158.23 503.91,-164.69 519,-169.94"/>
<polygon fill="black" stroke="black" points="518.18,-173.37 528.78,-173.35 520.49,-166.76 518.18,-173.37"/>
<text text-anchor="middle" x="500.5" y="-169.8" font-family="Times,serif" font-size="14.00">10</text>
</g>
<!-- g -->
<g id="node8" class="node">
<title>g</title>
<ellipse fill="lightgrey" stroke="black" cx="364" cy="-95" rx="18" ry="18"/>
<text text-anchor="middle" x="364" y="-91.3" font-family="Times,serif" font-size="14.00">g</text>
</g>
<!-- g&#45;&gt;f -->
<g id="edge13" class="edge">
<title>g&#45;&gt;f</title>
<path fill="none" stroke="black" d="M381.9,-98.92C392.99,-101.96 407.51,-106.88 419,-114 424.86,-117.63 430.53,-122.39 435.54,-127.19"/>
<polygon fill="black" stroke="black" points="433.31,-129.91 442.8,-134.62 438.31,-125.02 433.31,-129.91"/>
<text text-anchor="middle" x="409.5" y="-117.8" font-family="Times,serif" font-size="14.00">2</text>
</g>
<!-- h&#45;&gt;g -->
<g id="edge15" class="edge">
<title>h&#45;&gt;g</title>
<path fill="none" stroke="black" d="M216.32,-65.28C235.96,-56.43 270.97,-44.21 300,-53 315.59,-57.72 330.85,-67.71 342.45,-76.77"/>
<polygon fill="black" stroke="black" points="340.24,-79.48 350.19,-83.1 344.67,-74.06 340.24,-79.48"/>
<text text-anchor="middle" x="282" y="-56.8" font-family="Times,serif" font-size="14.00">1</text>
</g>
<!-- h&#45;&gt;i -->
<g id="edge14" class="edge">
<title>h&#45;&gt;i</title>
<path fill="none" stroke="black" d="M218.39,-72.43C226.87,-72.59 237.13,-73.43 246,-76 249.92,-77.14 253.9,-78.76 257.69,-80.58"/>
<polygon fill="black" stroke="black" points="256.16,-83.73 266.62,-85.37 259.47,-77.56 256.16,-83.73"/>
<text text-anchor="middle" x="241" y="-79.8" font-family="Times,serif" font-size="14.00">7</text>
</g>
<!-- i&#45;&gt;g -->
<g id="edge16" class="edge">
<title>i&#45;&gt;g</title>
<path fill="none" stroke="black" d="M300.36,-95C310.7,-95 324.06,-95 335.78,-95"/>
<polygon fill="black" stroke="black" points="335.95,-98.5 345.95,-95 335.95,-91.5 335.95,-98.5"/>
<text text-anchor="middle" x="323" y="-98.8" font-family="Times,serif" font-size="14.00">6</text>
</g>
</g>
</svg>
